<svg width="131" height="42" viewBox="0 0 131 42" fill="none" xmlns="http://www.w3.org/2000/svg">
<g clip-path="url(#clip0_1_2355)">
<path d="M42 0H0V42H42V0Z" fill="white"/>
<path d="M32.9034 20.6011L31.9654 24.1011H13.6534L8.66943 5.50562H12.2954L16.3379 20.6011H32.9034Z" fill="#AD7E5C"/>
<path d="M31.4019 26.2009L30.4639 29.7009H9.60743L8.66943 26.2009H31.4019Z" fill="#518581"/>
<path d="M29.9003 31.801L28.9623 35.301H14.5913L13.6533 31.801H29.9003Z" fill="#A6D8D1"/>
</g>
<path d="M54 12.216H57.264V27.216H64.92V30.096H54V12.216Z" fill="#151411"/>
<path d="M70.7272 30.384C69.3512 30.384 68.2552 30.048 67.4392 29.376C66.6392 28.704 66.2393 27.792 66.2393 26.64C66.2393 25.536 66.6153 24.624 67.3673 23.904C68.1193 23.184 69.2472 22.704 70.7512 22.464L74.6392 21.84V21.408C74.6392 20.832 74.4153 20.36 73.9673 19.992C73.5353 19.624 72.9593 19.44 72.2393 19.44C71.5672 19.44 70.9672 19.624 70.4392 19.992C69.9272 20.344 69.5512 20.816 69.3112 21.408L66.7432 20.16C67.1272 19.136 67.8312 18.312 68.8552 17.688C69.8792 17.064 71.0472 16.752 72.3592 16.752C73.4152 16.752 74.3512 16.952 75.1672 17.352C75.9993 17.736 76.6392 18.288 77.0872 19.008C77.5513 19.712 77.7833 20.512 77.7833 21.408V30.096H74.8073V28.704C73.7833 29.824 72.4232 30.384 70.7272 30.384ZM69.5033 26.52C69.5033 26.968 69.6712 27.328 70.0072 27.6C70.3433 27.856 70.7752 27.984 71.3032 27.984C72.2792 27.984 73.0793 27.68 73.7033 27.072C74.3273 26.448 74.6392 25.68 74.6392 24.768V24.24L71.3512 24.792C70.7272 24.92 70.2633 25.128 69.9592 25.416C69.6552 25.688 69.5033 26.056 69.5033 26.52Z" fill="#151411"/>
<path d="M80.6891 11.928H83.8331V30.096H80.6891V11.928Z" fill="#151411"/>
<path d="M90.696 30.384C89.32 30.384 88.224 30.048 87.408 29.376C86.608 28.704 86.208 27.792 86.208 26.64C86.208 25.536 86.584 24.624 87.336 23.904C88.088 23.184 89.216 22.704 90.72 22.464L94.608 21.84V21.408C94.608 20.832 94.384 20.36 93.936 19.992C93.504 19.624 92.928 19.44 92.208 19.44C91.536 19.44 90.936 19.624 90.408 19.992C89.896 20.344 89.52 20.816 89.28 21.408L86.712 20.16C87.096 19.136 87.8 18.312 88.824 17.688C89.848 17.064 91.016 16.752 92.328 16.752C93.384 16.752 94.32 16.952 95.136 17.352C95.968 17.736 96.608 18.288 97.056 19.008C97.52 19.712 97.752 20.512 97.752 21.408V30.096H94.776V28.704C93.752 29.824 92.392 30.384 90.696 30.384ZM89.472 26.52C89.472 26.968 89.64 27.328 89.976 27.6C90.312 27.856 90.744 27.984 91.272 27.984C92.248 27.984 93.048 27.68 93.672 27.072C94.296 26.448 94.608 25.68 94.608 24.768V24.24L91.32 24.792C90.696 24.92 90.232 25.128 89.928 25.416C89.624 25.688 89.472 26.056 89.472 26.52Z" fill="#151411"/>
<path d="M105.554 30.36C104.242 30.36 103.082 30.048 102.074 29.424C101.082 28.8 100.378 27.944 99.9619 26.856L102.29 25.656C102.642 26.36 103.106 26.912 103.682 27.312C104.274 27.696 104.922 27.888 105.626 27.888C106.234 27.888 106.706 27.768 107.042 27.528C107.394 27.272 107.57 26.928 107.57 26.496C107.57 26.128 107.426 25.824 107.138 25.584C106.85 25.328 106.474 25.16 106.01 25.08L103.874 24.72C102.77 24.432 101.914 23.944 101.306 23.256C100.714 22.552 100.418 21.728 100.418 20.784C100.418 20 100.626 19.304 101.042 18.696C101.458 18.072 102.034 17.592 102.77 17.256C103.522 16.92 104.37 16.752 105.314 16.752C106.514 16.752 107.57 17.04 108.482 17.616C109.394 18.176 110.058 18.96 110.474 19.968L108.146 21.168C107.89 20.608 107.498 20.16 106.97 19.824C106.442 19.488 105.858 19.32 105.218 19.32C104.69 19.32 104.266 19.44 103.946 19.68C103.642 19.92 103.49 20.232 103.49 20.616C103.49 21.32 104.018 21.792 105.074 22.032L107.162 22.416C108.266 22.72 109.122 23.216 109.73 23.904C110.338 24.592 110.642 25.408 110.642 26.352C110.642 27.136 110.426 27.832 109.994 28.44C109.578 29.048 108.986 29.52 108.218 29.856C107.45 30.192 106.562 30.36 105.554 30.36Z" fill="#151411"/>
<path d="M112.986 17.04H116.13V30.096H112.986V17.04ZM112.746 13.44C112.746 12.864 112.906 12.416 113.226 12.096C113.546 11.776 113.986 11.616 114.546 11.616C115.122 11.616 115.57 11.776 115.89 12.096C116.21 12.416 116.37 12.864 116.37 13.44C116.37 14 116.21 14.44 115.89 14.76C115.586 15.08 115.138 15.24 114.546 15.24C113.986 15.24 113.546 15.08 113.226 14.76C112.906 14.44 112.746 14 112.746 13.44Z" fill="#151411"/>
<path d="M122.993 30.384C121.617 30.384 120.521 30.048 119.705 29.376C118.905 28.704 118.505 27.792 118.505 26.64C118.505 25.536 118.881 24.624 119.633 23.904C120.385 23.184 121.513 22.704 123.017 22.464L126.905 21.84V21.408C126.905 20.832 126.681 20.36 126.233 19.992C125.801 19.624 125.225 19.44 124.505 19.44C123.833 19.44 123.233 19.624 122.705 19.992C122.193 20.344 121.817 20.816 121.577 21.408L119.009 20.16C119.393 19.136 120.097 18.312 121.121 17.688C122.145 17.064 123.313 16.752 124.625 16.752C125.681 16.752 126.617 16.952 127.433 17.352C128.265 17.736 128.905 18.288 129.353 19.008C129.817 19.712 130.049 20.512 130.049 21.408V30.096H127.073V28.704C126.049 29.824 124.689 30.384 122.993 30.384ZM121.769 26.52C121.769 26.968 121.937 27.328 122.273 27.6C122.609 27.856 123.041 27.984 123.569 27.984C124.545 27.984 125.345 27.68 125.969 27.072C126.593 26.448 126.905 25.68 126.905 24.768V24.24L123.617 24.792C122.993 24.92 122.529 25.128 122.225 25.416C121.921 25.688 121.769 26.056 121.769 26.52Z" fill="#151411"/>
<defs>
<clipPath id="clip0_1_2355">
<rect width="42" height="42" fill="white"/>
</clipPath>
</defs>
</svg>
